<mxfile host="app.diagrams.net" modified="2023-06-10T18:57:30.464Z" agent="Mozilla/5.0 (Windows NT 10.0; Win64; x64) AppleWebKit/537.36 (KHTML, like Gecko) Chrome/109.0.0.0 Safari/537.36" etag="YoPIC-5TmRH8OCOm5e6_" version="21.3.5" type="device">
  <diagram name="Σελίδα-1" id="t-GMvP_uwt3KorSiUw1_">
    <mxGraphModel dx="1562" dy="834" grid="1" gridSize="10" guides="1" tooltips="1" connect="1" arrows="1" fold="1" page="1" pageScale="1" pageWidth="827" pageHeight="1169" math="0" shadow="0">
      <root>
        <mxCell id="0" />
        <mxCell id="1" parent="0" />
        <mxCell id="-WR1szsz5hd7orrfo25A-9" value="" style="shape=image;verticalLabelPosition=bottom;labelBackgroundColor=default;verticalAlign=top;aspect=fixed;imageAspect=0;image=data:image/png,iVBORw0KGgoAAAANSUhEUgAAAU4AAAFSCAYAAACdRzaJAAAgAElEQVR4nO3de1xUZf4H8M+oieCoQV4WFrwRSKaCIpqCipa39YLhzzVbQ00rbTV1y0uamauYK23mZcssNyW31S1IM/OSd9FKUWGVVUhNnBFLBEQQUGC+vz+4OCCXOcPAHIbP+/Xi5csz5zznOc+Z+czznOfMjEZEBEREZLJ61q4AEVFtw+AkIlKIwUlEpBCDk4hIIQYnEZFCDE4iIoUYnERECjE4iYgUYnASESnE4CQiUojBSUSkEIOTiEihBqatloxj772NT89lPfyQ/e/Qoas/hgUPhncLu4Jl+QnYNutdfJfXDVP+Og19WpTaTdoxvPeXfyJxyJv4YKwn6lftGIio1shBwrZ3ELrnd5jy/gz0cSx69d9DcuwebP13JCK/isThy03gO3I0nv2/P+HFcT3h3EBTsJpKssXEHmcOks99j/DIOKQYjJcbkB3/NRZODULA2L/jaHJewWLJgG73JoSvX4CX392Pm6W/fyknGec2bcJuXQb41UxEdUkeMnQ/IXzTRSTnFL76JR1x/5wBf59RWLD/Djo/vxBhYa9igN1PWBEyEP1eCkdcZn7huurIFhN7nIVaPYcln70B3xJb5eDatlnweW4dQncGI+BFL6M0zsTFVX/FisFd8PfBLtBYps5EZDPykXroPfzf5D1wXbQTe+YORXttUT/xDUyPnI9nRi/C7K6dsf21bnAo3s662WKBa5yN0LrvIIzADVy4moxs44eGTMIrA/VYNWsN9t3Mq/quiMi2GK5g19otuOg1AW/NMg5NAGiE1iNexvxR7WCfkox04y6klbPFAsF5D0mnf8RJOKKNiyMaGT/UcihmL/8LBur/gVkryuhWE1GdJtfPYNf2q3AcHAAfpzKuSD7SES9+fQQ7lgyGs3G30srZomyonnoYn78PHCqO2xwknzuIiPBD+K1/KD4e7VXqYmx9NPUNwfLFh9F/DofsRFRS/k0dogE4uTZHU0VbWjdblAVn2i6snrer5DLfiVgWfgjPP9sH7bRlvGNonOD78ptYvG8M5sxag8FHlmFwFSpMRLZGi6YNGygPPStmi7KhunsYonMFIgLJ/RWn1k+Bx+lYXMp1QovG5U/8a5p2x8scshNRKfWdWqETMpGWkY2yr1Tm4+7tO+U8Zr1sMf8aZ4NW6D55AVZMrYdNk6di0a5r5R7cg27109Cv+itWfHMJ+WbvmIhsheb3nTGgtyOufncKF++XkXryKw696Y9HPOdhb3JZCWOdbKna5FCDdnj27cWY5nEOH8z5EAcqmt0q6lYP1GPVtHn4V5V2TEQ2oaEnhkweCu2Jf2PTPl2pzlc+Mv+7A59sOQ/HgJ7o3LycK4tWyJYqz6prnAdi/orJ8LhYeVe5uFutrepeicg2OMDjj/OwemIOPhgxEuNDv8CBH6Nx+vQPOLB1BaaMmYdvnKfho7eGwKWCi6A1nS2WuY9z5AwsneiKi6tW4h9RyRXcsV/UrQ4Cs5OIAECj7YJJa8OxbV5bRL/1JzzTyw/du/fGM+NWIPqJN/D1t+/ij+0dKimlZrNFIyKcqiEidci7hYTYRGSgPpq0eQKeze2sXaMyMTiJiBTi18oRESnE4CQiUojBSUSkEIOTiEihaglOjYZf40FElqO2TGGPk4hIIQYnEZFCDE4iIoUYnERECjE4iYgUYnASESnE4CQiUojBSUSkEIOTiEghBicRkUIMTiIihRicREQKMTiJiBRicBIRKcTgJCJSiMFJRKQQg5OISCEGJxGRQgxOIiKFGJxERAoxOImIFGJwEhEp1MDaFSDTqe0nUulhImLtKlANYHDWMnxhqhff2OoODtWJiBRicBIRKcTgJCJSiMFpC+Q69i5+CROm/wv/u298DdSAzNOfYNqECZj0zl7cKHF5NBc39r6LSROW4Fvd/bLLTTuG9yZNwoxtCcgv3tcd/HLyIm6ZfKk1Gcfem4YJM7YhIf/hR/MTtmHGhFL7qExZ9SKqQQxOW6BpguZNEhH+j904fd04BG/j7I7PsD48HJvW7Mbp5Dyjx1Lx393bsOmQoJnTI2WXm5OMc5s2YbcuAwU5mYyji0ehy/PfItHkxMpB8rnvEb5bh4wywlYydNgdbrwPU4osXS+immWTwblu3TrExMRYuxo1SAuPbt3hjPM4nXD7weL713D2wFV4BPZF17QoHDtv9NjdBByPjIXzuL7wblzObLBzMDaL4NIbvoW3X+TgVuI1ZFbjkZjkoXrVLXq9HuHh4dDr9dauSp1lk8+7GTNmAAD8/PwQEhKCgIAA+Pj4WLlW1akemnTqjSDHd7Ej+hf8bXAr2AEwXD2DXSfa4rl989A0bSzWHL6Atwf0QWMA+YlxOKTzwOCej6MJAGTGYtv6I0BgIFxOb8MXF7ToPeRJyPkEZHT7I6YNaIpz2zZhR1wqkHoYn7//KNLHvYABbg2Q+csxfP3NIZyOTUdT7x7oP3I4Ats1hVk35xTVY+Ao9EiNwjeHTuHivd/Dr+9AjBjcBS0aaArX+R63uv0R0wa0Lnz3v4cb0d/iy68O4H/SHj2eHo4hrc7jiygnjJ02AG5ZZW+jO/g5tl1oX7BOPQDIt+zxVIOsrCxMmDABABAUFITg4GAMGDAArq6uVq5ZHSLVoJqKVbT/0n9+fn6ydu1aOXv2rFXrVhUVtqvhZwkPchMM2ijx+SIiOXIl/E8Cx9dlT0qyHF3US+AdJtE5hgeP4U8SfiWnYPukCAmBVtq6txUtIEBbGfXWXBkHiHtYtOTKTTkaFiKB7lqB1leGjZ8nW+PTJGn/Uumv1Yp7YIjMXbpAXunvIdAOlbf36yRXRESuSUSIu8A9TKJzH652bnSYuBfvo6gejtI1MEA83ANlTMh4GRPoIYCbDFx9Wu4Wr2O0jWRIfPgr4gFn8Qt5U1YumyHD3DtJYKD3g/0+tE3BdtFhgUZ1yzHheMw8PxYUHx9f5nM8KChINm/eLDqdrkbqUZOsnSml1ZngtIUQrbhd70rcR0EC7QzZeTNPxJAoERM9RDsxQpIMeZKy53VxRJB8FHdXRH6VPTO9BQEfSVxe4eaFwQKvObLzeo5IbrqkJWwrFTYlQ9CQsl/meTmKx9QIScw1FJSTmyg7Z/USeL0lB1LyHtqmtLKD06geIiK58RI+1l3QdbXE5MlDIWi4HiGTHB3F7+3DkmoQETFIbuI2megIRcFp2vGYe34sp7zgtOUQtXamlGaT1zgrc+rUKcyYMQNdu3ZFjx49bOSaqD3a+vREp8xonLyYDqRdwNEdOXh6QBf8TlMfjl16I0h7BntOJ0Hu/YLoHZfhHdQd7vVLluI8cgj6utgBDZriUW1FV3IMyIg5gPCLXnju+UC0blA4kG3ghv7Bg+B2cTf2xqSZfTTF9QCABi7o2N0N+PkSdKmlZ6XykXbuBLanPYmgoT5w1ACABg1aP4MXp/dSsMfqPZ6atmPHDkyYMAFubm4YNWoUr4laWLVd46wtHz87deoUXFxc0LRpU3Tt2tXa1akCDRw69sQfnMNwKE6PO/gBkWndsMDXpeDaXKuO6NM7D2+cvozUntdx9GoHDO7WFnalSnFo0QwOJu3PgLu3U3EDP2Bp38ew9KHH3fHr7WwT665F04YNSlxDLLMemfdxP6/0PHoe0m/+ijQ8iSfaNDZa3giPubQ0cf+ApY5Hjc/7HTt2oEePHnBzc7N2VapEr9er5jputQWnWPEz1aY8ecu6qB4SElLdVauSSo+ryePoObg5PoyJwZHME9B5D4Kfu33BY/Va46lneyBt+SHs8knFCcdA/MXH0QK18sXM8FV4oWPpmKuPJm1aAkhBQ/tHgKxUpGcZgKbGgxzBvaxM3EcrdHZ1QqnOr4nqo1FjLYBU3M7IA5yLntKC3Pv3Ktn2PrLulF6nsuOpWE087xMSEtChQ4dK1wsNDUW/fv3QrVs32NvbY8GCBdVet+qi0WgQHByMyMhIVYRnnRqqBwUFYfPmzdDpdNi+fTtCQkJUcRIsRtMSnfr4IPObj/H+1+fhNrInvOyKwrZwKK/bj882HwSG+OEJR/OiqkB9OLV5HN64jZsNXdHN1xe+vr7w9fVB+9yT+HTdlzibmgfACZ49OgM3jmBf9K1S913ewcWffoIOXvB1NzfE6+Mx9yfRG+cQdf7mg/IlBZdjrj5YrUFD2GuB/Hu5Rjfzp+Lqf/XF5Zh2POoWGhqKqKgoZGVlYcGCBfD394e9vb21q2URq1atQnBwsCouOdh8cNp8WJbQCO5PDUDAjRM4fKIlgv098WDwWjSUP43Dh7PQ+xlvuJo7qsy6gFNR0Uh0+QPenNQU/160FGv3xuFW3j0kx36Fvy14F+vj7OHSohGARvAY+gKmefwXf5v6GhZvjMTBH6MRfew7fB76KsbNiYLHpBcwvGPjSndbNg0aPjkcr09tjM/mL8XHx64iM/c3RG9YivmfXXyw2mMd4P9MW1zdvBGfHYzF/+J+wp61y7F0h664HLsuQSYcj/rYclga8/f3V094VseMUzUVazJbm1EsYlK7Zh6VRW4QaKdKRFLpaezC2XQMk9UxGSUfKmvW+aFl9yVp93zx00IAL3llp15yb/4kG6cGFN7CBAG04j5sgWyLuy2G4sLzJCPuPzJvmFep2V8vGTbvPxKXkVdxPYpmv/FKwTGVsY4hI1bCjeqh9fuTvDTay2g2P08yzm+RqX7OD+o58q+yceVYo3UMJh5PFc6PBcTHx0toaKhERUVJVlZWjezT2ozbNioqSvz8/Kz6+tYUVsqiNBoNvzeyGqimXfNuIeF/2XDp7AatBgAEebcuITbxDh5p2QGd3bTl3Cz+YD3ADi07PAE3bVUuF5SWj0zdBcTftEMbb2ckfjAC3dcPQ/TFN+BbfOkzE7pz8bjZqA28PZuXc5Hf1OMpSTXnxwaVbtvjx49j9uzZVrvmyeCsRdiuSmTi9HtlBGc14vmpPmW1rTXD0+avcRKRbfL398f8+fOtcs2TPc5ahO2qROGwPa0ZOhRfUqhePD/Vp6K2XbduHcLDw2u058ngrEXYrurG81N9KmvbdevWITY2FmvWrKmROwo4VCeiWm/69Onw9vbGa6+9huxsUz+xZj72OGsRNX6cj0ri8756mJopNdXzZHASkeopyZSaCE8O1YnIptTEsJ3BSUQ2Z/r06WjXrh02btxYLeVzqE5EqmdOpmRnZ6Nfv37Ys2cPnJycLFof9jiJyCbZ29tj/vz5+OKLLyxeNnucRKR65mZKdfU62eMkIptVXb1O9jiJSPWqkinV0etkj5OIbFp19DrZ4yQi1atqpli618keJxHZPEv3OtnjJCLVs0SmWLLXyR4nEdUJlux1ssdJRKpnqUyxVK+TPU4iqjMs1etkj5OIVM+SmWKJXid7nERUp1ii18keJxGpnqUzJTs7Gw4ODmaXyR4nEdU59vb2mDJlChISEszansFJRHWSo6Oj2dsyOImIFGJwElGd1Lp1a5w/f96sbRmcRFQnubi4mL0tg5OISCEGJxHVSa1atcLFixfN2pbBSUR1UosWLXD79m2ztmVwEhEpxOAkojrJwcHB7Bvg+ZFLIlK96soUc8tlj5OISCEGJxHVadnZ2Yq3YXASUZ01Z84c6HQ6xdsxOImIFGJwEhEpxFl1IlK96siUoi8zzsrKgr29vaJt2eMkojrpzJkzmDNnjuLQBBicRFRHHTlyBM8884xZ2zI4iahO2r59O7p3727WtgxOIqpzYmJi4O3tzZ8HJiIyVVRUFPr06WP29gxOIqpz9u/fjwEDBpi9PYOTiOoUvV4PAHB1dTW7DAYnEdUpBw8eNHs2vQiDk4jqlGPHjiEgIKBKZTA4iajOSE1NRWxsLHx8fKpUDoOTiOqM6OhojBo1qsrlMDiJqM7Yv38/+vXrV+Vy+CUfRKR6lsiUqnypR2nscRJRnVCVL/UojcFJRHVCVb7UozQGJxHZvISEhCp9qUdpDE4isnlhYWFYtmyZ2V/qURqDk4hsWmRkJBwdHTFo0CCLlclZdSJSPXMzRa/Xw83NDTqdrkqfTS+NPU4isllLlixBRESERUMTYHASkY2KjIwEAAQHB1u8bA7ViUj1lGZKdQ3Ri7DHSUQ2p7qG6EUYnERkU/bt2wegeoboRThUJyLVMzVTUlNTMWTIEERGRlZbbxNgj5OIbMiKFSswffr0ag1NgMFJRDZi3759SEhIwJgxY6p9XxyqE5HqVZYpRUP0LVu2wNPTs/rrw+C0Lo1GY+0qkBXxdWKayjJl7ty56NSpE0JCQmqkPg1qZC9UIb546ia+aSqXkJAABweHEtcwjx8/joSEBCxZsqTG6sFrnERUa3z11VcIDg4u/m307OxszJ49GytXrrTIFxSbikN1K2Nb1V0896YraqsePXrg1KlT8PPzw4YNG/Ddd9+hadOmmD59es3Wh8FpXWyruovn3nQajQbx8fHo0KFDieVPPPEETp8+XaO9TYDXOFXqHpJj92DrvyMR+VUkDl9uAt+Ro/Hs//0JL47rCecGarg2loxj772NT89llVxs74zOPfpi4Iin4d3C7sHy/ARsm/UuvrtjKLF6Pcf26NHraQwZ1gvttPULl+YgYds7CN3zO0x5fwb6ONZXuL9y1gUA+9+hQ1d/DAseXLJ+pHrnz59/aNmFCxewe/fuav2UUFl4jdMCUlNTLVeYpCPunzPg7zMKC/bfQefnFyIs7FUMsPsJK0IGot9L4YjLzLfc/syWg+Rz3yM8Mg4pxVl4F9f2/wNzJg+DT68/YflBPfKKHpIM6HZvQvjxa8jGg/WvfvseXn1uKAbP2IqEnKLeVx4ydD8hfNNFJBcvU7K/stYFAAOy47/GwqlBCBj7dxxNzgNVLjs7u/KVasCPP/5Y5vLRo0dj3bp1NVsZqQbVVKyqnD17VtauXSt+fn4SERFhdjkl2ypPUg68JV5wk/6LdsrljDyjx7IlMWKmeMBNBq4+LXfN3qOlXJOIEHeBe5hE5xovz5OMyztlUX83gcds2Zl0v2BxbrSEuUMQEiFJJcrJlsStr4gjvGXmnl8Ll2VIdFigAK9IRFJR4Ur2V966xvtzlkEbL0i+ZRrDLGp+nWRlZUlUVJSEhoaqop4AKv3bvHlzjdWHQ3UFYmJiEBUVhfDwcJw6dcryOzBcwa61W3DRawL+MWso2hcPXQGgEVqPeBnzR53FjpRkpAvgoAEKhvUHsPP7ozgZl4OWPt0QMDQIAz2bQQMAmbHYtv4IMHAkuv52BN8ciIa+0RPoPeJZBPs2hu7wTkTsOY5LaI8+zz6PsU+5oIHxNvq9+Nf3Z5HerEvBNt2dK7m+Ux/a9kPxxvLp2N9rBd79MgSDXvNBw3LXbwSXxx+HE77D1ZsZELSCsgsRZe3vsQrWb4TWfQdhBD7GoavJyIYXGgMA8pH5yzF8/c0hnI5NR1PvHug/cjgC2zUtro9kJuD7/3yDAyf/h/RmHvDp1geDiy4xVKnN1CE7OxtnzpzBkSNHsHDhQmtXx2RTpkzBxIkT0a1btxrbJ4fqlYiJicG6devQo0cPdO3aFTNmzKie0AQg189g1/arcBwcAB+n+g+v8EhHvPj1EexYMhjOGgDIwbWdb2NYwFgs33UDzdwaIHH7Mgz2HYd3DhQOWzMu47s57+Bvs17A8Fc34eSvqbi0axnG9p+KBW//GYNf+hQnf02H/sD7GD/wz/gw9k7hNgsxf3R/+M78Duktfo+GFzZhst8wvLztZ+RWeiT10bRrXwxrm4YTu87gqqGCVSUdF6Njkar1xYAuLRWGphn7wz0knf4RJ+GINi6OaFS47MaBdzGyywgs2X4Vdu0b4+aOdzCgy3MP2jHrDNYGP4PBy79Hekt3tEw/jPeeG4rBr32FK7ligTazjuzsbBw/fhzLly+Hg4MDAgICakVo+vn5Ye3atdDpdPjkk0/g7+9fsxNE1dGNraZia4zxMBwmDBEsNVTPjQ4Td0Dcw6LloRFmGQzXI2SSo1a8Zu2U67mGwkISZeesXgLHaRJx/b5IUoSEAAKvObLzeo6IGOR+3HoZCAi83pIDKXkiYpDc+I0yElrpujpG8oq28ZgpEYnZpcqdKTt/y5WKh8MiYvhFto5t++DxoqF6mW3oJ1O3nJcMQ9HGSobqZe2vcF3HYTLzb2ESFlb0t1TmhvQXd0C0/UPlyM2Cggwp+2Wel6N4TI2QxNLt6PWWHEjJlZwfQqUtAmTZD7cLd5gtl8MnihZjZGN89oN2rrDNyj/3Nan0MNyUP2srqseUKVMkKipKsrKyrFofi48g5s6dC6D2firCz89PcY9y9OjRFqyBFk0bNjCh55WPW2cO48u0Xlg8vi9cimbaG7hh4PhgeH+wEfvOJCPYt2Cx88gh6OtSMIv8SJuOeMoNuDhmEHoW9mwbtOmIHm0zEXc/D0XTMW7Pjcbg1o2Ky+0fPAhuH2zH/rMpGD64kupp6uMRuzJ6ze6BGOPfGsV9A0MK4rbvwvolq+HnE4ZJTzYzr9dZ1v7SdmH1vF0ll/lOxLLwQ3j+2T6Fs/gGZMQcQPhFL0zZEIjWRu1YcLzfYm/MTPT7nRNcEYPNH6xF64lPo2f3bvB84TNkvFBY7o2Cfypus1YPV7uGXyehoaFm9SjV8Hqurm9zN4dFg3P9+vX48MMPAdTejxHq9XocPHgQkZGR2LFjh0nbREREmH07hPETsr5TK3RCJmIzspEH4OHYycfd23dh92hTNEAOkq78jEy0R3sXB+MSYefSHt7Q4+SVZOQXBqdDi2YoXsvOAU0bAg2bOqD4hpz6j6Bk7rRF7yfdHmwDDRxc3dENmUi7e7/yA8u7iSvHLwPOWthrgOI09p+B1ZuD4Vy8oiAvaRfmPD0OM9/qg8CIF9DenAtIpfcHAO5hiL74BnwbAMj7DdEb38LzU0/jUq4TWjQuOlgD7t5OxQ38gKV9H8PShwp2x6+3s1G//zh8vPUK/jxlEUK2LQLgDN8xL2DChEmY9AcvaAGY02Y1/TrJzs5Gv379FF/HtPbrWaPRqCY0AQte49y6dSumTZuGQ4cOWapIq3B1dUVISAi2b98OnU6HzZs3IygoqEb2rfl9Zwzo7Yir353CxftlPFHlVxx60x+PeM7D3mSBvbYJgEzczSl5e5Lk3EU6mqCF1s7Ma4YAkI+c+yVv18lP/Q0P30lXFkFuQjT2XdbCq39HuJbR8XxAgwYu3ujToxUytx9HzG/m3CJkwv4atEL3yQuwYmo9bJo8FYt2XUPJPfliZvhRREdHl/r7Cgv7tgQ0zdBx7EocSruJuIMR2Bj2PNpf+RyvDZ+MZYduFr4vVKXNaoa9vT38/f2xYMECZGVlISoqCqGhodauVq1jkeDcvn07pkyZgq+//hp+fn6WKFIVajxEG3piyOSh0J74Nzbt05V6Yecj87878MmW83AM6InOzRvDtWNXdEIsTsTdwoOYzcWNsz/gKNqip0fLKpxgHY6euIjk4oLvI+nSBfyGTujlVdGsNYA8HfZ+shnfIwCTg7zRtLJdZf2KKz+nAp3awKVZhSlbtf01aIdn316MaR7n8MGcD3HgZkG/3qnN4/DGbdxs6Ipuvr7w9fWFr68P2ueexKfrvsTZ1GzcOPh3TH1uMb5NdkTH/sF48Y33sO3rVRiLE/jqjA4Fb11VaDMrYIiar8pD9YMHD2LSpEnYsGEDRo0aZYk6qVJRiIaEhJg1nDeNAzz+OA+rj03E5BEjcWPZXLz0tCcefSQXt38+iE/eXoFvnKdh61tD4KLRAD7D8OeRGzDtL+/Au9lCjA9wQvKhzXhn/ufIHfl3jPVzBNLMr03a+jC8G+CCBX98HNk/foHFi76G87TNCHrCAUBKwUpZ53BoeyQS6wGAAXdvJuD0t59j9a67GBi2Ci93a1ay0Gs/YXck8Gjhf+XuDcTu/wKrfmiGkR8Ng49DJX1kk/Z3p9zNNc4DMX/FZOwf/Q/MWhGII38fgpZdgvDmpC/w3KKleOrR1/H8049D4rbj7wvexfrMl/F8Cy2aZQD/3fYZEjy90e61YXjy0XTEfn8MsfDDiM4uqI9EE9pMvYpC1N/fH7Nnz66VtyXVqKrMLB04cEBatGghS5cuLbG8isXWKjqdTuLj483evqy2MmSck23zgsS9xMymVtxHviNfx98Ww4M1JTfpsKye2Fu0xes5i9/ENXIkKadglcLZ3hIz9YUz3OUuK9zGefR4ed5D+6DcqVvkfPFN+YUz1w/NwGrFvf80Cdt5wWiWXCqcVdf6jpO3Np6QpKIZ7Ypm1U3aXyUz8LmXZOtELwH6y9tHb4pBDJJ78yfZODXAqB214j5sgWyLK2xvw22J2zpHArVG+9b2lokf/SSphgftXHGbVX7u1aZoBt7a1NZWZn/JR0xMDLp27YoJEyZg06ZNJR7jlxeYrsK2yruFhNhEZKA+mrR5Ap7Ny/tsdT4ydRcQfzOvkvVMdCMSE1xG43hYNC7OaoMrsYnIadkBnd20VbhmWhsI8m5dQmziHTxS3vEWnxM7tOzwBNyKPqRgRpvxdWI6tbWVWUN1vV6PoKAgjBgxAh999JGl60RFGjSHp29zE1asD61bJ/i6WbMOtkCDBs09UOHhmtIedarN6ibFcwd6vR5PP/00GjdujG3bttX41zkREVmboqG6Xq/HoEGDABT8olx591WprVutZqpsq8LhaN0YnluIGW2mynOvUmprK5ODU6/XY/jw4YiNjUV8fHyFvySntoNUM7ZV3cVzbzq1tZVJQ/Wi0Lx//z6ioqJq5Oc3iYjUqtLJodTUVIwaNQqNGzfGX/7yF/j7+9dEveoUNXwOmIhMV2FwZmdn4/XXX4ednR3GjRtXY79ZXJeoafhBRKYp9xpndnY2XnvtNaSnp6NZs2b45JNPTC9UZdcjiKh2U1umlHmNs3RorlmzpqbrRUSkWg8N1YtCs3nz5oiNjcWePXt4ryYRkZESPc6i0PT29satW7ewatUqOKRM9FYAABmSSURBVDk5WatuRESqVCI4Fy9eDADo27cvkpOTOYNORFSG4uBct24d0tLSsGbNGmzZsgWvvvqqNetFRKRa9QAgPDwcsbGxWLNmDXQ6HQ4fPow+ffpYu25ERKrUICEhAevWrSueBPr0008xf/58TggREZWjXlhYGJYtWwYnJyfo9XocPnwYQ4cOtXa9iIhUqx6A4m882r59O3ubRESV0Oh0OnF1dUVqaiqGDBmCI0eOVDk41XaXPxHVbmrLlHpF36n5xRdfICQkhL1NIqJKaEREUlNT8dhjjyElJcUiN7yr7d2BiGo3tWVKPaCgt7l27Vp+SoiIyASarKws6devH/bs2WOx4FTbuwMR1W5qy5R6u3fvRkhICHubREQm0vj5+UlkZGS5P7xmVqEqe3cgotpNbZlSLzAw0KKhSURk6zTx8fFi6R9fU9u7AxHVbmrLFEW/q25yoSo7SCKq3dSWKSb9PDARET3A4CQiUojBSUSkEIOTiEghBicRkUIMTiIihRicREQKMTiJiBRicBIRKcTgJCJSiMFJRKQQg5OISCEGJxGRQgxOIiKFGJxERAoxOImIFGJwEhEpxOAkIlKoXnZ2trXrQERUq9Q7c+aMtetARFSr1Dty5Ii160BEVKtoAEhWVhbs7e0tV6jKfpGOiGo3tWVKvSlTpiA+Pt7a9SAiqjXqjRkzBlFRUdauBxFRrVGvY8eOCA8Pt3Y9iIhqjXqurq5wcXFBQkKCtetCRFQr1AOA4OBg/Pjjj9auCxFRrVAPAAYMGIDIyEhr14WIqFaoBwCurq5ISkqCXq+3dn2IiFSv+LPqISEhOHnypDXrQkRUKxQHZ0BAAMLDw8HPrtdNGo3mof+b8qd0m9q+vqX3QbVTcXD6+PjA09MTGzdutGZ9SCVExKQ/pdvU9vUtuQ+qvTRidAazs7PRr18/bNiwAT4+PuYXqrKPR1HleM5qHtvcdGprqxLfx2lvb48NGzbg5Zdf5pCdiKgcJXqcRcLDw3H+/HmsXLnSvEJV9u5AleM5q3lsc9Opra3K/Ab4MWPGICEhAfv27avp+lA1K2/Cwvix2jBJo3R9a9eJbEuZPU4A0Ov1cHNzg06ng6urq7JCVfbuQA/w3NQ8tnnVqa0Ny/3NIVdXV0RERGDJkiU1WR8iItWr8MfagoOD4ejoyG9PIiIyUu5QvUhqaiqGDBmCLVu2wNPT07RCVdatpgd4bmpeeW3Oc2E6tbVVpT8P7OTkhFWrVmH8+PG8RYmICCb0OIssX74cALBgwYLKC1XZu0NdVfo8mDK7q7b11VinitZX0rPk68R0amurSnucRWbPno2TJ0/i+PHj1VkfqkZq+Mii0vXVWKfy1q+o3WuCXq9HampqjeyrrjM5OO3t7bFy5UrMnj37oZMTHh7OE0ZkZSdPnsRjjz2Gl156Cfv27eNrshqZHJwA4OnpienTp2PevHnFy9atW4cJEyYgOjra4pUjIuU+/fRTDB48mCFajRQFJ1DwvZ0AEBkZiXXr1mHGjBkAgC+//NKyNSOyEdb85BBDtHqYPDlkTK/XIyAgAImJiSWWZ2Vlwd7eXnUXcusqnoeapXQSyNLnJzIyEqNHjzZp3SlTpmDMmDHo3r07nJycLFaH6qK257Li4MzOzsaqVauwcOHChx6LioqCv7+/6g7S1vGz0DXPEgGphvPm5+eHU6dOWbsaJlFTpigaqmdnZ+O1114rMzQB4MiRIxapVFVFRkbWud9PMnWGmn9V/6voHFjznEVERJi0Xz8/P6xduxZnz57FyZMnrd6eVWlza1HU43zppZfw6aefVrhOVlYWHBwcrHqwRe/kQUFBCA4OxoABAxR/UUltwh5+zVLa3jV1fioaqvv5+SEkJAQBAQFV+pJya1Hbc1xRcGZnZ+PMmTPYsWMHwsLCylzn7Nmz6Nq1qyqC05gth6janlS2rrYEZ20PS2Nqe46bNTkEFHyGPTo6Gl9++WWJXujatWsxY8YM1QWnMVsLUbU9qWydpSaBqmNyaMWKFTYTlsbU9hw3OziN6fV6HDx4EJGRkUhKSsKpU6dUHZzGbCFETXpSyXXsfecdfJESiHnvP4+ODYvayIDM0xsxZ00Ucto9j+WLB8O5uPlycWPve1jwxX2MXvYmhrs1fLjctGN47y//ROKQN/HBWE/Ulzv45VQSmvh5obnJpyEZx957G5+eyyq52N4ZnXv0xcART8O7hZ2phRkdszl1qZxagzM1NbVWzJCbQ23BCbEwnU4nAGrVn5+fn6xdu9bq9ajKX+XSJTpsoAB/kvArOUbLU+Tool4F5TjOlJ2/5Ro99qvsmektcFssRzMNZRebFCEhgLiHRUuu3JQji/qL1j1MonPLXr1s1yQixF2g9ZVh40MkJCREQkJGS6C7tqBe7qMl9IBOFBVpdl0qV157V7Tc/PNGIuW3rbU0qCBTzVLUaxOV9zjLuv4zffr06q5atTCth62FR7fucMZ3OJ1wGy+0a1Ww+P41nD1wFR6BfaE9HIVj529j+IDmBY/dTcDxyFg4j3sf3o3L2YdzMDYXn2sdbiVeQ6a5B9LqOSz57A34Fj8r85F5ZTdWTnkVC6e+jy5H/obhzo+YWFhO1epiQdZ8LVD1sHhwqpktXSxXrh6adOqNIMd3sSP6F/xtcCvYATBcPYNdJ9riuX3z0DRtLNYcvoC3B/RBYwD5iXE4pPPA4J6Po0lmLLatPwIEBsLl9DZ8cUGL3s9NwLhOyYhY/z1udRuI3snfYEdcKpB6GJ+//yjSx72AAW52APKR+csxfP3NIZyOTUdT7x7oP3I4Ats1RcWRXx/a9kPxxvLp2N9rBd79MgSDXvNBQ6BgGB61F3t/OoeLcdcBt87o0rM/RgzughYN0hG7bdPDdXG9V8E21r+nkmoPxR+5rG1K37M2ffr0OhiaBTQtvNC7rxuuHv0fEg0AcA+JPx3EPsfe8PftgZ4jO0P3zU+4eE8A3MO101GIQg8M6NoKmozL+G7OQsx/Lgh/mLoc61dvQOTPd1Ev4zK+mzMHq85cQ5ruEq7dzgVyf8Wlc5eQnF1Qzo0D72JklxFYsv0q7No3xs0d72BAl+fwzgE98iqtdX007doXw9qm4cSuM7hqACDpiPvsDQzuuxDbom+jqftjSDv2ISYPH4GxK48jTXJx56G6pFWyTfW2PdmY6hj/V1OxJiu6Znn27Fmr1qOmmN7edyXuoyCBdobsvJknYkiUiIkeop0YIUmGPEnZ87o4Ikg+irsrxdc3Az6SuDwpvpYJrzmy83qOSG66pGXmlbrGWXit0ui6oiFlv8zzchSPqRGSmFt4nTQ3UXbO6iXweksOpOSJlLFdCYZfZOvYtsWPGxK3yjito/QKPSHpRZdeDXrZObWToG2o/JBjeKhM07apWnsrXU6mU1sb2uRQ/eTJk9augkrZo61PT3TK3ImTF9Mx/MkLOLojB0+v7oLfaeoDXXojSPsf7DmdhFfcbyF6x2V4/7k73Os/KMF55BD0dbEDYIdHGwC4U9H+DMiIOYDwi16YsiEQrYuGww3c0D94ENw++BZ7Y2ZiwIBKqq2pj0fsHlRC0/qPCP/FD7/g92iqAYB7uPXzFdyU+sDVa0hKzQecSxVh0jZVfzmo4WOUVP1sMjipPBo4dOyJPziH4VCcHnfwAyLTumGBr0vBtcZWHdGndx7eOH0ZqT2v4+jVDhjcrS2MbwRyaNEMDibvz4C7t1NxAz9gad/HsPShx93x620Tfo4l7yauHL8MOGthrykoNyf1Ivb8cwle/ioShy8bTwE9VW5dlG+jnHAiqE5gcNY1TR5Hz8HN8WFMDI5knoDOexD83O0LHqvXGk892wNpyw9hl08qTjgG4i8+jhbYqS9mhq/CCx1LR259NGnTEsDNCrYV5CZEY99lLbye7wjX+oDh2nbMHD4R//n9eLy94FO83rYdPLu4I2PT/6H7nLJLMWcbpRiadQeDs67RtESnPj7IfOtjvN/uF7iNXAQvu6LhZeFQXheBzzbfBoaE4gnH+hUWV7H6cGrzOLyxHzcbuqKbb7vCWfR8pP24AQs+1iPwzQXwbF5BEXk67P1kM75HAMKCvNEUebgR/T3++bMPloWvwJynmhWsJ79g2xkdgA5lFYLfFG9DVD6bn1Wn0hrB/akBCLhxAodPtESwvycaFz9WNJQ/jcOHs9D7GW+4mnPJLusCTkWdQkJKPuy6BOHNSU3x70VLsXZvHG7l3UNy7Ff424J3sT7OHi4tGhltdw6HtkciMjISkZFf4fP1yzFr1GCM+ECPgWHv4OVuzQBoYNdYC0f8hnOnLiA5T5B3Kw571y7Fon9fLqcu0fglvYHp2xBVpjpmnKqpWCqH4vbOPCqL3CDQTpWIpNLT2IWz6Rgmq2MyHiwuMXsu5Sy/L0m754ufFgJ4ySs7r4uIQXJv/iQbpwaItvgTM1pxH7ZAtsXdloK57MIZ8Ic+WaMV9/7TJGznBckwnvTO1cn+t4calecsfhNXyZcfviSOGCJh0bdFStcl4oQJ21Stvfm8rz5qa1uLfFa9NNV9rtTGqa69824h4X/ZcOnsBm1xj1WQd+sSYhPv4JGWHdDZTVvJze+VKSrvLpq0eQKezcv5LHuJupi4TSUqmjlX1XmwIWp7jjM4bQDbu2axvWue2tqc1ziJiBRicBIRKcTgJCJSiMFJRKQQb4C3EfyMNFHNYXDaADXNNhLVBRyqExEpxOAkIlKIwUlEpBCDk4hIIQYnEZFCDE4iIoUYnERECjE4iYgUYnASESnE4CQiUojBSUSkEIOTiEghBicRkUIMTiIihRicREQKMTiJiBRicBIRKcTgJCJSiMFJRKQQg5OISCEGJxGRQgxOIiKFGJxERArV0+v11q4DEVGtUm/JkiXIzs62dj2IiGqNeo6Ojti4caO160FEVGtosrKypF+/fli1ahX8/f0tU6hGAxGxSFlERGrLlHr29vbYsmULZs+eDV7vJCKqXD0A8PT0xLJlyzB9+nRe7yQiqkTx7UiDBg1Cjx49sGrVKmvWh4hI9Urcxzl79mycPHkS+/bts1Z9iIhUTyOlrrjq9Xq4ublBp9PB1dXVvEJVdiGXiGo3tWXKQ58ccnV1RVRUFIKDg3m9k4ioDA/1OIusW7cO165dw8qVK5UXqrJ3ByKq3dSWKeV+Vn3y5MlIS0tDZGRkTdaHiEj1yu1xAgXXO4ODg7FlyxZ4enqaXqjK3h2IqHZTW6ZU+O1Irq6uWLVqFcaPH4/U1NSaqhMRkapV2OMsEh4ejmPHjuGTTz4xrVCVvTsQUe2mtkwxKTgB4KWXXkKfPn0QEhJSeaEqO0hbp9ForF2FOofP75qltkwxOThTU1MxZMgQbNiwAT4+PhUXqrKDtHVs75rF9q55amtzk78B3snJCRs2bMDLL7/80JeB6PV6HD9+3OKVIyJSI0U/neHj44P58+fD+MuPExISEBwcjCNHjlRLBYmI1MbkobqxuXPnonXr1ujatSsCAgIAAH5+fjh58mRBoSrrVts6tnfNYnvXPLW1uVk/1rZkyRKsXbu2ODQB4NSpU/w+z1rlHpJjd2Dt/Ano/3gTaDQu6B40A6Gf/4gbeep5ghaTGzi4fComTHgd/4y9o3z7tGN4b9IkzNiWgHzL147qGLOCc+PGjUhISHhoeVGPk1RO0hH3zxnw9xmFBfvvoPPzCxEW9ioG2P2EFSED0e+lcMRlqite5MYP2PLexwgPfx9vbfoBqUqzPScZ5zZtwm5dBlT4tkC1jSiQlZUla9euFQBl/s2ZM0cKh/5KirW4qKgoycrKsmodapKy9s6TlANviRfcpP+inXI5I8/osWxJjJgpHnCTgatPy11LV9Rs9yRx64ui1Y6VuXOGCrQvytbEe8qKSIqQEEDcw6Ilt4q1sfbzOyUlRXQ6nVXrUNOs3ealNVASsosXL0ZYWFi5j4eFhWHJkiVmRrjlFF1CCA0NRb9+/dCtWzfY29tbuVYqYbiCXWu34KLXBPxj1lC019Y3erARWo94GfNHncWOlGSkC+CgAQqG9Qew8/ujOBmXg5Y+3RAwNAgDPZtBAwCZsdi2/ggwcCS6/nYE3xyIhr7RE+g94lkE+zaG7vBOROw5jktojz7PPo+xT7mggfE2+r341/dnkd6sS8E23Z1R4omZm4DvNu4GRqzCtMl3ERP2FjZ+l4DgqZ3wSImDM6rnuXQ06xyAIaNHILBdUzx8p2s+Mv+3C599lwBpPRAhY7zxaC25HfbWrVvo0KEDgoKCEBwcjAEDBpj9FZBkJqVJGxUVJXPmzCm313n27FmrvzuUVa/Q0FCb7YkqaW/Dta0yFhDHmXskxaQtsiXxm7nip9WKe2CIzF30uoQEegi0Q+Xt/bqC3ltShITAUboGBoiHe6CMCXlehvk6C7QjZc5b40stGyWrY9ILt9FKW/e2onUfKTOX/VXmjPETLbrKpK0Jcv9BjeVezBrpDXcZt/WKGAxXZOs4d0Gv9yT6rsGonjmStH+p9C+q59IF8kp/D4E2SMJOpYihRI8zTzLOb5KJHo7iMXGTnC/R666ctZ/f8fHxDz2/g4KCZPPmzTbbE7V2m5dmdm1SUlJk8+bN4ufnV+IEbt682eoHWV6o22qIKmnv3OgwcVcwZDVcj5BJjlrxmrVTrucWBlVuouyc1UvgOE0irt8vHgbDa47svJ4jIga5H7deBgICr7fkQEqeiBgkN36jjIRWuq6OkbyibTxmSkRidqlyZ8rO34pqlyY/LAs0WnZfrkdME0cEyKKjtx5UNP2ILPLSiuPEbZJYWE9D+gkJ7eUo2nFbJfF6UXD+KKlVCE0R67+IywpOWw9Ra7d5aRapjXEvdMqUKVY/yMqC09ZCVHlwFoZXpWvnyc2dM0SLgRIWnW603CA50WHiDS95Zef14uB0nntAitfKPCqL3CBui45KZtGynB9kWdvC0C7cpsTjYpDMo4vFDd4yc8+vBYvSD8hcZ4jzrD2SUpjbht92ylRHiOOkCLluMN7OV+YeSDaqZ7YkxUVL7LWM4h6n8+jx8ryHVrQj/yExZoSmiPVfxJUFpy2GqLXbvDSzZtVL8/f3x8qVK5GSkoI+ffoAKLjvylp/SixcuBABAQEYN26cVetcU8db36kVOiETaRnZyCtzjXzcvX2n8LEcJF35GZloj/YuDkbraGDn0h7e0OPkleTi23scWjRD8Vp2DmjaEGjY1AF2xTt/BHbGl1TRFr2fdHuwDTRwcHVHN2Qi7e59AHm4efQbfHIDuPHBEDxWr+B467UagfVpQNqXX+PAL/cA5ONO8q/QoQlaNGtkVH4jOHf0RRc3bfE1zhsRW/DFz5nIPBaN//52T1HbGbPm+e7QoYPJ9dyxYwcmTJgANzc3qz9Pa+o5XhMsEpxFnJycir8ERAp6s1b5M1VQUBA2b94MnU6H7du3W7XONXG8AKD5fWcM6O2Iq9+dwsX7ZWwrv+LQm/54xHMe9iYL7LVNAGTibk7J25Mk5y7S0QQttHZlTLyYKh8590vGd37qbzhfvBMdDn3xLdI8xmDuyjCEhT34Wzl3DDwyd2H9txdwv4LyH7wJFHB+5QskXPoWs1t9iZmLvsblXPNuTrLm+Y6Pjze5nqGhoYiKikJWVpbVn6c19RyvCYpm1W1BnZ+JbOiJIZOHQjv539i0Lwhhw1sbPQnykfnfHfhky3k4jlmCzs0b49GOXdEJX+BE3C2Mb/f7wpDMxY2zP+Ao2mK6R0vUw//MrIwOR09cRPL4x9FSAwD3kXTpAn5DJ/TyegyGXyKwdedv6DR/NhbP6QXjPi+yTkFzbD/mfLIbZ6Z4w8/LBwHYjzOXkiG+RT3MdJx5fzj6bhqEowc6AwAcHvdEO/cnMSt0Mr4dvQSLhvph8wuepWbnazfeTVIDpBpUU7GK9g8bvM5THqXtbciIlY0TuwrgLWOX/Uv2/3BKoqNPyP5/L5OxHlqBxzTZernwLs7sWPloZFuBxxT56OgvkmFIlysH1kiIh1a0Iz+W89mGsu+RzI2WMPcKlhVNDqGvzNpyWm7eT5fEox8VTNpM+0aSDBkSs3qYAMNkdUxGGUeRKXEfBQvQVWbtuSGG/F8k4sWuJep5efdyGelYeE9q6TrmXpGIqb4Cx0kSfknZHavWfn6XdY3TFq7VV8TabV6azQanrYelMXPa25BxTrbNCxL3Ei9ArbiPfEe+jr8tD270MUhu0mFZPbG3aIvXcxa/iWvkSFJOwSpVCM6iyZricqduKZjpvntSwno5CnqvkZh7xrcdPZB/OVxGaVEwa24wSO7Nn2Tj1ACjerpJ/3kREp+RV0YdDZKbGCFTPbTiOG6LXLpf9j7KYu3nd1Fw2npYGrN2m5dm1pd8VEajse4H8vV6fZ0ahlepvfNuISE2ERmojyZtnoBnc7tyVsxHpu4C4m/mVbKeiW5EYoLLaBwPi8bFWW1wJTYROS07oLPRRI55LFzPMlj7+V30zWR1aRhu7TYvzSavcdal0KyyBs3h6dvchBXrQ+vWCb5u1qyDKaqxnipRlwJTrSw6q05EVBfY5FC9rqmV7V14icAyw/OaVSvbu5ZTW5szOG0A27tmsb1rntranEN1IiKFbHJyqC5S48fSiGwVg9MGqGkIQ1QXcKhORKQQg5OISCEGJxGRQgxOIiKFGJxERAoxOImIFGJwEhEpxOAkIlKIwUlEpBCDk4hIIQYnEZFC1fK1ckREtow9TiIihRicREQKMTiJiBRicBIRKcTgJCJS6P8BGpihXuxR8RMAAAAASUVORK5CYII=;" vertex="1" parent="1">
          <mxGeometry x="159" y="231" width="334" height="338" as="geometry" />
        </mxCell>
        <mxCell id="-WR1szsz5hd7orrfo25A-3" value="" style="rounded=0;whiteSpace=wrap;html=1;strokeColor=none;" vertex="1" parent="1">
          <mxGeometry x="458" y="290" width="30" height="250" as="geometry" />
        </mxCell>
        <mxCell id="-WR1szsz5hd7orrfo25A-4" value="" style="rounded=0;whiteSpace=wrap;html=1;strokeColor=none;" vertex="1" parent="1">
          <mxGeometry x="149" y="320" width="30" height="220" as="geometry" />
        </mxCell>
        <mxCell id="-WR1szsz5hd7orrfo25A-5" value="&lt;font style=&quot;font-size: 14px;&quot;&gt;ReqChan&lt;/font&gt;" style="ellipse;whiteSpace=wrap;html=1;strokeColor=#FF3333;strokeWidth=3;" vertex="1" parent="1">
          <mxGeometry x="87" y="278" width="90" height="40" as="geometry" />
        </mxCell>
        <mxCell id="-WR1szsz5hd7orrfo25A-6" value="&lt;font style=&quot;font-size: 14px;&quot;&gt;InbRspChan&lt;/font&gt;" style="ellipse;whiteSpace=wrap;html=1;strokeColor=#FF3333;strokeWidth=3;" vertex="1" parent="1">
          <mxGeometry x="89" y="363" width="88" height="40" as="geometry" />
        </mxCell>
        <mxCell id="-WR1szsz5hd7orrfo25A-7" value="&lt;font style=&quot;font-size: 14px;&quot;&gt;OutbDatChan&lt;/font&gt;" style="ellipse;whiteSpace=wrap;html=1;strokeColor=#FF3333;strokeWidth=3;" vertex="1" parent="1">
          <mxGeometry x="88" y="449" width="88" height="40" as="geometry" />
        </mxCell>
        <mxCell id="-WR1szsz5hd7orrfo25A-8" value="&lt;font style=&quot;font-size: 14px;&quot;&gt;OutbRspChan&lt;/font&gt;" style="ellipse;whiteSpace=wrap;html=1;strokeColor=#FF3333;strokeWidth=3;" vertex="1" parent="1">
          <mxGeometry x="91" y="519" width="88" height="40" as="geometry" />
        </mxCell>
        <mxCell id="-WR1szsz5hd7orrfo25A-10" value="" style="endArrow=none;html=1;rounded=0;strokeWidth=3;dashed=1;" edge="1" parent="1">
          <mxGeometry width="50" height="50" relative="1" as="geometry">
            <mxPoint x="490" y="630" as="sourcePoint" />
            <mxPoint x="490" y="190" as="targetPoint" />
          </mxGeometry>
        </mxCell>
        <mxCell id="-WR1szsz5hd7orrfo25A-11" value="" style="shape=image;verticalLabelPosition=bottom;labelBackgroundColor=default;verticalAlign=top;aspect=fixed;imageAspect=0;image=data:image/png,iVBORw0KGgoAAAANSUhEUgAAATgAAADwCAYAAACUs3gHAAAgAElEQVR4nO3dfVxUZd4/8M+oheCoIWI3JEoSiKWC4uiqpOCGym0CwpI9sKSJpvvLtN1A8rmU4nbaTGk3u8NWWdfwNkilEg0SUdQEBRITJrVwEJMREHkY5GG+vz94cMABZmBgZg7f9+vF66VnzrnmmovDZ65zXedBREQExhgToD6GrgBjjHUXDjjGmGBxwDHGBIsDjjEmWBxwjDHB4oBjjAlWv4cXKXDqw42IvlT18Evm/4XRE6Zjnv8cuFibNSyrl+HA6g/wXd1EhLy3As9atyqy9BQ+/OsXyJ/7Dj5e6IS++v8MjDGjUw3Zgc2ISPwvhHy0Es9aqv/l34ciOxGxX8Yj/qt4pFwbCDefACz40yt47aUpsOknalhND9mioQdXDcWl7xETfxnFKvXlKijzvsa65b5wX/h3pCrqGhZTOeRH9yBm11os+yAJRa3PqqtW4NKePTgqLwefcMdYb1GHcvmPiNmTC0W12l8+leHyFysx3dUPa5PuYdzL6yCV/gWzzH5EZLAXZi6NweWK+sZ1u54tGnpwjR5/Ee/+6224tVijGjcOrIbri58gIsEf7q85qyVkBXK3v4fIOePx9zm2EOnSFoyxXqAeJSc+xJ+WJGL4hgQkhnljlLip3/U23ogPx3MBG/DWhHE49OZEWDRv1/ls0XEMrj9GzJiN+biFK78poFR/ae5ivO5VgO2rd+J4UZ1uxTLGhE91Hd9G7UOu86tYv1o93ACgP0bMX4ZwvydhXqxAmXqXrAvZomPA3UfhhXM4D0uMtLVEf/WXhnnjrff/Cq+Cf2B1pIbuJGOsV6ObF/Htod9gOccdrkM0jJg98jRe+/okDr87Bzbq3bQuZEvbh6glKfj3R8CJ5gishuLSD4iLOYHbnhH4LMC51aBeXwxyC8b7m1LgGcqHqoyxluqL5MgAMGT4UAzSacvOZ0vbAVf6LXas+bblMrdF2BpzAi8veBZPijUksGgI3Ja9g03HAxG6eifmnNyKOTp9EMaYsIkx6NF+und8OpktbR+iOkiRUUsgIlDt70jfFQLHC9m4WjsE1gPaPtlDNGgSlvGhKmOslb5DHsdYVKC0XAnNI2n1qLx7r43XOpct2o3B9Xsck5asReTyPtizZDk2fHujzUo86E7+EQXb30Pkkauo1+pNGGNCJnpiHGZNs8Rv36Ujt0ZDOtHvOPHOdDzitAbHFJoSRvds0X6Sod+TWLBxE1Y4XsLHof9EcnuzGU3dSa8CbF+xBv/R+k0YY4L1qBPmLvGG+MyX2HNc3qqTVI+Knw7j8305sHSfgnFD2xg90zFbdJpFFdl4ITxyCRxzO+4iNncnxbq8A2NMuCzg+MIa7FhUjY/n+yAoYj+Sz2XgwoWzSI6NREjgGhyxWYFP18+FbTuDdLpki+7nwfmsxJZFw5G7fRv+cVrRztUJTd1JX3DGMcYAQCQej8VRMTiwxh4Z61/Bc1MlmDRpGp57KRIZY97G1998gBdGWXRQivbZIuJbljPGDKLuDmTZ+ShHXwwcOQZOQ830/hYccIwxweLbJTHGBIsDjjEmWBxwjDHB4oBjjAlWlwJOJOJL6Rlj+qPvTOEeHGNMsDjgGGOCxQHHGBMsDjjGmGBxwDHGBKvtO/oyg+IZauPHVzkaPw44I8Z/QMaLv4BMAx+iMsYEiwOOMSZYHHCMMcHigGOMCRYHHGNMsDjgGGOCxQHHGBMsDjjGmGBxwDHGBIsDjjEmWBxwglOPCtl3iAp/FZ5PDYRINBBPeb6K8KjvIKuoN3Tluqb0FD5cvBgrD8jQ5ifRZh3Wa3DACUo9KrI/wytu8/DmV3KMCFgDqXQNAkbI8dWb8+Dm8xHOlprwn321Apf27MFReTnavEpXm3VYr8EX2wsJ3cTxjz/GkeGhSEjegudtm54UHopVgRvwx/kfIOyAN1KWj0Vfg1aUsZ7BASck9QpcP/ULMHYcnrExU3vBDLazX8Xa/6fADxWluAfAsiIbB3adBLz8MLnkNI6cSEfu/ScgmeGF+XPGw7pf090y7kORnYyE71Nx/nI1hrlOhLu3L7ycBuPB/TQ6WKf5vXwwoeAY/vN9JsoGj8e0+QvgP8nmwU5I9/Dr6WM49uMl5F6+CdiNw/gpnq3qA4BKkPftZ/i/7zNRNtgVHv7+eN5lWDs7cz0qfj2Fr4+cwIXsMgxymQxPn+fh8eQg8D1BBI66oIubs3Z0rm3vUOoGdwJcaGHE/1FqnoJq21q1MI6CYUkTPNzJ0cGDAoODKNDDkQA78tpxgSqJiEhJ+UfCSCIWk4NHMIVt+BsFezgSxN60MUneWLYW6xTGUTDEZO9gT2IHH1q19T0KDZSQGBNocayMaoiIVHcpZ/dScoQjeSxcSRu2hDaUAzvyjDhFJaqmckAACA6z6fX14fS6pyNBvZzGdRykGY31q6bCpC3k2VS/LWsbtmnxGXTH+3730He7csAZqc62rao8m3YvmtAQAgBB7EY+KyNod8KPlF9e92DFprBwDqWEm9UNy2rzKGahA2HCDsqqI1LdjKPFlmJyXp1AN2tVjevkU8LqqQTLFRR3s0ardZrfy3EVxeUrW62zihJu15IqP5ZeElvS1IgzVKZq+jAFlLB8LME+gs5Wq9qoc8tyWgecqjiJ1jhbkuPyOMpvXT/n9ZRcrNYmOuB9v3vou115kkFgROLxeO2LVOSf+w77/rkZK2cBP0Stw5L5U/DMrLfw78tlLQbfbXzmYkbTWF0/Wzw9yQ745SrkJfdx52IKDpZOxZKgGbBtOkTsZwevIH+4lJ7A8Yu3tFhH0fxedi8GYM6I/s3rePrPhl1pCpIyiyEa8QJifs3A3mUTMUgEAPdx55frKKK+wG83UFjyYHLELnA+PJvr3FTOaZzKuduqNVQoz0pGTK4zXnzZAyPU6ufpPxt2uUdxLKtUH83OjBQHnBCJxBgxxRuvrNiEnYczcK/8N5z98h1IrkThL+uP4FfVg1UtrAfDovX2FTWoqatG4fVfUIFRGGWrvoYIZraj4IICnL9+Azc6XEfReLqGPaY9Y6f2XiJYDHfARFSgtLIGgArVJblI/HBZ4+kt/WE9egaWfJbdqnIO8HS1xwC1cvoPGoKhuIvf7ypbratC5d0S3MJZbJlhBZFI1PjTB+IZ70KucRsmJDzJIBiE++c+gPPUb/BC8iH8z6xhza+IxCPxhxffxrs/p2DGljRk3X4Jozosry/MxQMBVKCyuh7quwpVV6IMA2EtHoAB6Ggds8aB/HpU19S1eIf6ktvIATAdgOrGIax6fhH+74kgbFwbjb/ZPwmn8Q4o3/MnTApV36oKv9+thAoPvp2prgb32v0sblgVsx1/frp1lPfFwJHDNG7BhIF7cIIhwqO2DpgqPovP/52CG3WtzgKjGlSVVwM2Q/DYAG1+7WYY/vQEjEU2zly+o3ZYW4tbmWeRCntMcRyBER2uM6xxJ5Mj9UwuFM0r1aDw6hXcxlhMdR6M2xnf44tfXBH+QSRCX1uI52dNhpPVPVy9KG9Vr1u4dCkfdzWWY9Vq3b4YMvIpuOAuih4djolubnBzc4ObmytG1Z5H9CcHkVlSByZgXRnA6+LmrB2daltVMaVLfUkMMTkGbqDouCQ6m5FOZ5O/ok/DfMkB9uTzaTYpiTTMNhIRlVOG1IOA1ymusJZImU2f+tgTHEPo09RfqVxVRteTd1Kwo5jEPp9RjlKl3TrNs58zaPW+C1RUU0b5qZ/SIkdLclxxhApVdVSc+DeyhCMt3HmWimpVVKvIocQdi8kReFAfDeU0vFdTORo+V42MYhdPIDguph2JOaSoraairFha42lHkGyh1BKeZDAm+m5XDjgj1em2rb1JZ3evoXkO4gczqQBB7EWrdp+hwqaZRG0CjlRUW5hCOxZNI3FzWTYkWbSTThY2zmJqs07je9kEBNHLjuIH6yzfRzlNM7u1ckra6N2qjO108J9LyRJzSZpxt7EcO/IOXUOL2irnoc+lotqiH2n3cne1ssXkMG8tHbh8l1TUObzvdw99t6uosdBOEYlEBn20XUFBAQ4dOgR3d3e4uroarB7doettex93ZFeQX14PPDIMo8fZQdzps1rrUSG/gryiOgwcOQZOQ810W+dWPF61DUCaNAO5q0fienY+qoeNxjg7casTbQl1d64iO7+ynfdpVHcHsjbL0aSp7Ht4ROtt2tZT+35aWhoqKysxadIkDBkypNvfz9D03a4mHXAymQyjR48GAEgkEgQHBwsm7AzdtnqlHnBvuwliZqunfj/x8fEICAgAAISEhCAwMFDQYafvdhXMJEN6ejpWrlyJCRMmYPLkyfjkk0+QlZVl6GoxpjfR0dGYM2cOrKyssHTpUhw/fhwlJSWGrpZRE0wPri2m2rMzdNvqlc6Hk8bPED24tgipZ8eHqGq0CTh1phR2hm5b1j5jCjh1ph52IpEIxcXFeqt7l4dDRCLT+T5OT0+Hi4sLnJycTKrezDgZ4z6UnZ0NFxcXzJkzx9BV6TQrKyvExcXB39+/y2X1ih6cKX6rGbptWfuMqQdnSkcmHRGJRJDL5di5cydkMhm2bdsGJyenTpcnhAktjUwx1BjTlpBCrbXhw4dj27ZtOH78OIKCghAcHIwlS5bA3Nxc57IEFXAcavqmwKkPNyL6UtXDL5n/F0ZPmI55/nPgYt3O+Wp6UQ3Zgc2IOD0B6z5eCKdeejtiIYeaJrNnz8azzz6L7du3Y+bMmdi+fTumT5+uUxkmf4gqlUoFGWqGbtsGcsS/6omA+Mcwz+8ZWDWfVKSC8saPOJjyC8SeEfj2QBhmWHfnd2UFLnw4H5N2zUNG7ttwM4Kv5Z76/Rw/fhwymazXhFpb7SqTyRAWFgYnJye8+eabGD58uHYFduUyiC5uztphHG17g+KCHQgOUsp46Na3SsqPfZ0sYUOzd1+h+m6tR+MlZBrrYRjG8fsRnvbataqqiuLi4ggAxcXFUVVVVYflGcF3ITNN/TFixmzMx2c48ZsCSjhjgDbPPtDmuQt0D7+mJCAuMQ1XMQrT5z6HJwzdmWUGZ25uDn9//+ZJiKNHj+Lzzz9vdxvBXMnAetp9FF44h/OwxEhbS/THfdxK/gA+4+fj3UO/wWzUABQd3oxZ41/E5uQC1AEAleHyv97GnBnrcCDjLgY5WKH01D+x5Pn5WLgtDaUEABWQ7QvDnFmhiM0FBtMlfLF0AZY9dONL1ls1TUIADYfw7equ7iTrGuNo28ZDVMt5tOp/pCSVNv1sobBgT3IASOwZQSeLarV69oE2z11oWkeyMaXhQTOkotr8A7TIEnyI2gvo0q5yuZwkEgkVFxe3XV5PVYbpxjjatjHg1G+71PTjtoi2xpyg6+V1RFRPZcnvkA2m0oZU9Z1NRRWpm8gObhSWrCAiFdUqrpFM0XSrpWpS5KXS7tddGm/RVE1FCStJDC+SZpSplaOg5DA3DrheQNd23bt3L4WGhrb5Oh+iso45SJFRSyAiUO3vSN8VAscL2bhaOwTWA/pC+2cfdPTcBSVu5F7S8IyH/hhsPbDnPzczeoGBgZDJZG0eqvIkA9NNv8cxaclaRGYFImDJcjw2LBbS520bX2z/2QcdP3ehHwYOsYamZzwwpom5uTm2bduGoKAgjaeKcQ+O6a7fk1iwcRNWOF7Cx6H/RHIRafHsg2otnrvQxnMgSKHh2QyMNXBycsIbb7yByMjIh17jgGOdIrLxQnjkEjjm/gOrI5NRNs4X7ywehC83bEHUscu4U3cfiuyv8D9rP8Cuy+awtTaH2QAxLHEbl9KvQFFHqLtzGceitmDDl9eaSoWFmy/e8q3Arvc+wv7sItRW/IZTn72vtg5jD2s6VH3oHpA9OSDItGccbdveib5EVHuVYhc5E+BJG1NvU01Hzz7Q5rkLpKLawhMkXejSPKEhlrxCSwOceZKhF+hKu2ZmZpJEImlxArBJX6olZKbbth09+0Db5y40PVNiAEa6PIWh/Yzr1kSm+/sxbl1t1/fffx/Ozs7Nt1riUVymZyL0G+oIt6Gdfb2JGYY6uaLD1RhT4+zs3OL/PAbHGBMMsViMwsLC5v9zwDHGBMPe3h43btxo/j8HHGNMsDjgGGOCMXToUKSkpDT/n2dRjRS3rXHj30/30Ee7qpfBPTjGmGBxwDHGBCUkJAQymQwABxxjTGAsLS2b/80BxxgTHIVCAYADjjEmMCNGjMDt27cBcMAxxgQmKSkJkydPBsDXoho1kci4LjBnzNiVlJSgsLCw+bmpHHBGis+xYkx3GRkZ8PPza/4/H6IyxgQjIyMDM2fObP4/BxxjTDAOHTqEMWPGNP+fA44xJggymQy2trYtHjzDAccYE4ScnBw899xzLZZxwDHGBOHcuXNwd3dvsYzvJsIYMxqdzRSlUgkLCwtUVVXB3Ny8eTn34BhjJi8vLw8hISEtwg3ggGOMCcBPP/0Eb2/vh5ZzwDHGTF58fDzGjh370HIOOMaYSWu6PMvJyemh1zjgGGMmbf/+/QgODtb4Gs+iMsaMhq6ZUlJSAisrKxQXF7c4wbcJ9+AYYyZr//79iIqK0hhuAPfgGGNGRJdMKSkpwdy5c3Hy5MmHTg9pwj04xphJioyMRHh4eJvhBnDAMcZMkEwmQ0pKisZz39TxDS97odaHAdrcObgr6/fEexjD+u1tw0M5+hUdHd1h7w3gMbheiX9vPYvbW3vatJVMJkNQUFC7Y29N+BCVMWZSoqOjsXXr1g7DDeCAY4yZkKysLMhkMsyePVur9TngGGMmY/PmzQgNDdV6fQ44xphJSEtLAwBMnz5d6214FlXA2pstbW9W0NhmJw05+9mZ9VsPkvMEg35IpVKdem8A9+B6FSLS6kfXbUx9fX2+B9MPPz8/FBQUNP8/LS0N1tbWOvXeAA44xpiRKSgowOHDh2FnZ4f4+HgolcpO9d4ADjjGup22h8msQVVVVfO/AwIC4OPjAxsbG433e+sIBxxjzKjk5OS0+H9SUhLOnj2L48eP61wWB5wAiESih3oJTf9vek3Tj6YyTGl9Q9eJdY+KioqHlmVnZ2POnDkICwtDSUmJ1mXxLKpAdHXmztTX74n30Gam1dQnGkpKStq8t1pPad2DUyeVSgEA27Zt06os7sEx1ssVFBQgJiYGfn5+iIyMNHR1IJPJNC739fXF6dOntQ43gHtwjPVKBQUF+OGHHxAfH4/Dhw83L+/MTKW+qdcHACQSCcLDw+Ht7a3V9afqOOAY0yNjvnNIW6FmzPbu3YvAwECdg60JBxxjAmaKoQYAERERWL58eZfHA/l+cCaGZ+96nqZ9vK19X9NyQ/3OQkJCEB0dbZD37oq8vLxOnfOmCQeclpRKJS5evIgxY8YYdJapN7W5MdC1vY3t95OVlYXTp08jJiYG6enpHa4fGhqq0yC+vum7/XgWtR1KpRJpaWl4//33YWFhAXd3d9y5c8fQ1WJMa66urnjjjTdw/vx5ZGZmIioqChKJxNDV6jE8BtdKU0/t5MmTWLdunaGrw5jeuLq6Ngeerj07U8UBBw41pjtdDqWM7bAVaDvshKbXjsF1NtT0OQDaGdq1+X0oshMR+2U84r+KR8q1gXDzCcCCP72C116aApt+xjJRocCpDzci+lJVy8XmNhg3eQa85v8RLtZmuhVJ9/BreiEGSpwxVA8fU5fJhLaWm9LfSUFBAYYPH26w99d3W3U64JRKJSwsLPRWEUOQSCQm2T1v91dGZbj8r1AsWPI5brn5YfF/T8GIQXUoOn8Enx68AptFn+DrqCA8I+7bcxVukxzxr3oiIP4xzPN7BlZ9AKASN9KOIeVaBeAQgIj//Rhhs4ZreaihQOrGhZi3/7+Rkvs23PRwfNKZgNPEVALO0PT+ZUCdFBISQl3Y3GhkZmZSVFQUSSQSAtDhT15enkHr236b11Fx8npyhh15bkiga+V1aq8pKT9uFTnCjrx2XKDK7q6oVm5QXLADwUFKGbXqy+uo/FoCbfC0Izi+RQmFNV0sr/Paam8h7PvGSN/t2qnvuE8++aTryWokBDXwqrqOb6P2Idf5VfxjtTdGteil9ceI+csQ7peJw8UKlBFgIQIaDmeTkfB9Ks5frsYw14lw9/aFl9NgiACgIhsHdp0EvHww4fZJHEnOQEH/MZg2fwH83QZAnpKAuMQ0XMUoPLvgZSz8gy36qW9TcAz/+T4TZYPHN2wzyUaL3lhfiEd54+3330DS1Eh8cDAYs990xaN0D7+ePoZjP15C7uWbgN04jJ/iiflzxsO6XxmyD+zB4cslQEkK/v3RYyh76c+YZWfWcNja5nbGcrjOuoWuiXjs2DHy9fWlqqoqQX+LtdWzM+YenOpGLC0EyHJVIhVrVZqS8o+EkUQsJgePYArb8DcK9nAkiL1pY5KcaomICuMoGJY0wcOdHB08KDD4ZZrnZkMQ+1Do+qBWy/xoR1ZZ4zZisnewJ7GDD63a+h6FBkpIjAm0OFZGD/pjHfS4qs/SVnsQZu+mvLq7lLN7KTnCkTwWrqQNW0Ib6go78ow4RSWqIkqVBpOHg5ggdqN5QWsoNk9JpOpou861t5D3fUPSd7vqVFpmZiZJJBKSy+XdUhljpR52xhxwtRlScgDIQZpB2hyhqW7G0WJLMTmvTqCbtY1/6bX5lLB6KsFyBcXdrGkMKxCcQynhZjURqajm8i7yAgjO6ym5uI6IVFSbt5t8IKYJO7Kormkbx1UUl69sVe4qSrjdVLsOAk71K8UutCc4SOn8tVh6SWxJUyPOUFlTKKkKKGH5WIJ9BJ2tVmksT5WvzXZt0zXgesvfRHfRd/tpfaJvQUEBli1bhu3btxt0lsUQ1E+WNOQMqnbEGPRoP3R84FWPOxdTcLB0KpYEzYBt06FaPzt4BfnDpfQEjl9UNK9t4zMXM2zNAIjwyMin8Qc7wC5wNqYM6QtAhH4jn8Zk+wrcq6lD0xCx3YsBmDOif3O5nv6zYVeagqTMYu0+iqgvHjFrOMzuM+IFxPyagb3LJmJQ46H1nV+uo4j6Ar/dQGFJveYiOrkdEwatAk6pVOLdd99FeHi4zk+1YT2n75DHMRYVKC1Xok7jGvWovHuv8bVqFF7/BRUYhVG26rPhIpjZjoILCnD+ugJNf/4W1oPRvJaZBQY9Cjw6yALNJ3H0fQRmLSZm7THtGbsH20AEi+EOmIgKlFbWaPeB6opwPe0aYCOGuUiF6pJcJH64DJ5PDYRI1B/Wo2dgyWfZHRTS2e061tEdgJnhaRVwmzZtwpNPPgl/f//urg/rAtET4zBrmiV++y4duTUaptrpd5x4ZzoecVqDYwqCuXgggApUVrfsxVB1JcowENZiMy16gm2pR3VNy5itL7mNtu/V+lBlUSvLwPFrYjh7Pg3bm4ew6vmFWPujBf57bTQSkn9EnuIOMqQe7ZaiutG57TqsnZaPFGSG1WHAxcTEoLS0FG+99VZP1Id1xaNOmLvEG+IzX2LPcXmrXlw9Kn46jM/35cDSfQrGDR2A4U9PwFhk48zlO3jwZ1mLW5lnkQp7THEc1oWLleVIPZMLRXPBNSi8egW3MRZTna063rxOjmOf78X3cMcS32egzPgeX/ziivAPIhH62kI8P2synKzu4epFeXuF4HantmNC0e6MfVpaGj755BMkJiZ2+oZzrCdZwPGFNdhxahGWzPfBra1hWPpHJzz2SC3u/vIDPt8YiSM2KxC7fi5sRSLAdR7+n8//YsVfN8Nl8DoEuQ+B4sRebA7/N2p9/o6FEkugtPO1Kd0lxQfutlj7wlNQntuPTRu+hs2KvfAd0+oE8apLOHEoHvl9AECFyiIZLnzzb+z4thJe0u1YNvEx1N0RwxK3cSn9ChSTpsDy7s9I3v93bPjyGoDnWpV3Bemn0zFw3HgMHaDDdkx42pp9kMvlBKB5xrQnZjxYx7Rpc1X5JTqwxpccWpykLCYHn830dd5dejBvqKLawhTasWgaiZvXsyHJop10srC6YZXGGdEWM7O1GSR1aGdZ4zY2AUH0sqP4QbnL91FOi5OPG2c9HzqhWkwOnitImnCFypsqWyunpI3ereq5nQ7+cylZYi5JM+4SUQ0VHg0niRgEONPrCTe13E739uZ9v3vou101XqqlVCoxc+ZMbN++vd1JBVO6xk4odGrzujuQZeejHH0xcOQYOA1t67rOelTIryCvqK6D9bR0Kx6v2gYgTZqB3NUjcT07H9XDRmOcnbgLY3oAQKi7cxXZ+ZXt17PuDmQ/K2E7zg5ikQ7badDexAHv+/rXI9eiLl26FC4uLnjjjTd6tDKsYybR5uoB97abSd+yxiTaW0C6/YaXMpkMCoWiw3BjjDFj99CXa3R0NP7yl78Yoi5MKKxnYF1GBqqHjYYx3LOE9V4tDlELCgrg7++PkydPajVryt33nsdt3rO4vXtWtx6iHjp0COHh4XxKCGNMEJp7cCUlJbCyskJxcbHWT43ib7eex5cD9Tzex3uOvjOleQxu//79iIqKMugj8VjH+I+NMe2JiIiazntLTEzUKeC4B8cY06duGYM7evQo/Pz8uPfGGBMUERHR5MmTsW/fPp3vdcY9OMaYPum9B5eWlgYPDw8TuJEjY4zppo9UKoWvr6+h68EYY3rXBwDfpZcxJkh9goODDV0HxhjrFn3Gjh1r6Dowxli36PwdqRljzMj1GTp0qKHrwBhj3ULjDS+13pjPg2OM6VG33/CSMcaEggOOMSZYHHCMMcHigGOMCRYHHGNMsDjgGGOCxQHHGBMsDjjGmGBxwDHGBIsDjjEmWBxwjDHB6lNQUGDoOjDGWLfo8/PPPxu6Dowx1i36JCUlGboOjDHWLUQAOn3HJL5dEmNMn/R+uyRfX1/IZDK9FcgYY8aij7+/P3JycgxdD8YY07s+48ePx7lz5wxdD8YY0ztRVVUVWVhYdOq4l8fgGGP6pPcxOHNzc4SEhCArK0tvhTLGmDHoAwDe3t7Yv3+/oevCGOtl4JMAAAq9SURBVGN61RxwMpkMaWlphq4PY4zpTfNjA2UyGYKCgnDy5EmYm5trtzGPwTHG9KjbHhvo5OQEPz8/7N69W2+FM8aYIbV48LNSqcTMmTOxb98+ODk5dbwx9+AYY3rUrQ9+Njc3x9atWxEWFqa3N2CMMUN56H5ws2fPhrW1NeLj4w1RH8YY0xuRpivtCwoK4O/vj8TERAwZMqTtjfkQlTGmR/rOFI0BBwAxMTHIycnBtm3beqwyrGMikcjQVeh1eB/vOd06BqcuMDAQMpnsoSsc0tLSwHcBNiwi4p8e+mGmrc2AMzc3x+bNm7Fs2TIolUoADeHm7u6OH374occqyBhjndXuQ2dcXV3h4eGBgwcP4vjx43B3dwcAnDp1qkcqxxhjXdHmGFyTkpISTJw4Efn5+S2WFxcXw8rKirvxPaxzYxT3ochOROyX8Yj/Kh4p1wbCzScAC/70Cl57aQps+hnZuB7dwg8fvIu9eQMw86+b8JrLIN22Lz2FD//6BfLnvoOPFzqhbxeqwuPMPavHxuCa7N+//6FwA4ArV67orRKsG1EZLn+xEtNd/bA26R7GvbwOUulfMMvsR0QGe2Hm0hhcrqg3dC1boFtnse/DzxAT8xHW7zmLEl3392oFLu3Zg6PycnA09XLUhqqqKoqKiiIAGn8iIiKonc17RFVVFRUXFxu0Dj1Ntzavo+Lk9eQMO/LckEDXyuvUXlNSftwqcoQdee24QJX6rmin3af82NdILF5IYaHeBPFrFJt/X7ciCuMoGCAHaQbVdrE2ht7Hef/umn5tBd+bb76J6OjoNoPx0KFDeozZzpHL5Rg9ejRCQkIQGBiISZMmtXveXq+juo5vo/Yh1/lV/GO1N0aJ1Q/W+mPE/GUI98vE4WIFygiwEN2HIjsZCd+n4vzlagxznQh3b194OQ1G80FsRTYO7DoJePlgwu2TOJKcgYL+YzBt/gL4uw2APCUBcYlpuIpReHbBy1j4B1v0U9+m4Bj+830mygaPb9hmkg1a7IS1Mny3+ygwfztWLKlElnQ9dn8ng//ysXikxYdTq+ulMgwe5465AfPh8eQgPHzAXY+Kn7/Fv76TgUZ4ITjQBY8Z2VF5W1JSUhAZGYng4GC4u7vD1dXV0FUyLW0lX1VVFR07doxCQkLa7MW1s3mPyMvLe6g+ISEhdOzYMcF+8+nS5qobsbQQIMtVidRxaygp/0gYScRicvAIprANf6NgD0eC2Js2Jskf9IQK4ygYljTBw50cHTwoMPhlmudmQxD7UOj6oFbL/GhHVlnjNmKyd7AnsYMPrdr6HoUGSkiMCbQ4VkY1D2pM97N20jQ40Eux10mluk6xLzkQpn5IGZUqtbpWU2HSFvJsquuWtfS6pyNB7EvS9GJStejB1VF5zh5a5GhJjov2UE6LXmzHDL2Px8XFtdi/JRIJRUVFUWZmpkHr1V303d5alSaXy2nv3r0kkUiMPuCEHna6tHlthpQctDxUU92Mo8WWYnJenUA3axvDpDafElZPJViuoLibjTHUGB5wDqWEm9VEpKKay7vICyA4r6fk4joiUlFt3m7ygZgm7MiiuqZtHFdRXL6yVdmrKOF2U+1K6exWD7VlNXQzbgVZwp02pN55UNmyk7TBWUyWiw5QfmNdVWVnKGKqJYlfiqX8m00Bd45KuhBuRMYXcEIPO4MEnLrTp083j78Z+pffUcAJMex0D7jGkGl3zToqSlhJYniRNKNMbbmKqjOk5AJnej3hZsOixrCyCUum5jUrUmmDHchuQypVNC2rPktb7RvDtXGbFq+TiipSN5EdXGhV4u8Ni8qSKcwGZLM6kYobM1Z1O4GWW4IsF8fRTZX6dm4UlqxQq6uSCi9nUPaN8uYenE1AEL3sKCaxzz8oqxPhRmTcASfEsNN3e7c5BteW6dOnY/r06Vi+fDmsrKxM5tKh6Ojo5jHFiIgIrFu3zsA16n59hzyOsahAdrkSdYCG0yXqUXm3EmaP9UXh9V9QgVEYZWuh9roIZraj4IICnL+uQD1sm8uwsB6M5jXNLDDoUeDRQRYwa37zR2DW4g3tMe0ZuwfbQASL4Q6YiAqUVtYAqENR6hF8fgso/XgurD5uVdWDXyN5/Tz8eVRf3FP8DjkGwnpwf7UV+sPmaTfYAMCthiW34vZhPwDcycBPtxfBRWyBzjCFfTw9PR3p6ekAAIlE0vzv3q7D00Ta0jSYTwa8jCYvL0/r+vr6+mLv3r2Qy+VYu3atwS8B6uyPLkRPjMOsaZb47bt05NZo2JZ+x4l3puMRp7/hm6K+ACpQWd3ylBGqrkQZBsJabKZh8F4X9aiuqWu5pOQ2mp/IS3Kc2P8NSh0DEbZNCqn0wc+2sEA4VnyLXd9cQU075VfevQf1d7B5fT9kV7/BW48fxKoNX+NabedOGjHk7zsuLk7reoaEhODYsWNITEw0+H7aE/u3NnTuwZkSX19f+Pv7Y9asWRg+fLihq9PzHnXC3CXeEC/5EnuO+0L6/Ai1X3g9Kn46jM/35cAycDNemCdDbMR+nLl8B0FPPtEYZrW4lXkWqbDHG47DOv9tCACQI/VMLhRBT2GYCABqUHj1Cm5jLKY6W0H1axxiE25jbPhb2BQ6FS36WlXpEJ1KQujnR3ExxAUSZ1e4IwkXrypAbuLGupbh4kfPY8ae2UhNHgcAsHjKCU86PIPVEUvwTcC72OAtwd4/O7WajTVtfAZBB6gLurh5l2kag/P19aW9e/eSXC43aN26i65trirPpt2LJhDgQgu3/oeSzqZTRsYZSvpyKy10FBMcV1DstUoiZTZ96mNPcAyhT1N/pXJVGV1P3knBjmIS+3xGOcrGQTFN55jVZpDUoZ1lTZMMmEGr912gopoyyk/9tGHwf8URKlSVU9aOeQTMox1Z5Ro+RQVd/tSfgAm0OvEWqep/pbjXJrSo67Wj75OPZeM5fa3rWHud4pa7ESwXU8xV3c74M/Q+rmkMTijjyZrou70FEXBCDzV1nWlzVfklOrDGlxxa/KGIycFnM32dd5ca5yGptjCFdiyaRuLmdWxIsmgnnSysflBYFwKuadC/uezl+xpmNivPk3SqJWHaTsq6r346yAP112LIT4yGWVKVimqLfqTdy93V6mpHnmviKK+8TkMdVVSbH0fLHcVk+dI+ulqj+T00MfQ+3hRwQg41dfpu7w6vRW2Poa/TUyqVKC4u7lWHn11q87o7kGXnoxx9MXDkGDgNNdOwUj0q5FeQV1TXzjo6uhWPV20DkCbNQO7qkbienY/qYaMxzk7c5XE9vde1FUPv4yUlJQDQaw4/9d3eJj0GZ25u3qvCrcv6DYWT29AOVuoLsd1YuNkZsg7a6ua6GoHeEmzdpWvjxowxZsRM+hC1NzLJNm88NNbPYWnPMsn2NmE99kwGQ1SGdYzbvGdxe/esHr8fHGOMmSoOOMaYYJn0LGpvZQrXRjJmDDjgTAyPBzGmPT5EZYwJFgccY0ywOOAYY4LFAccYEywOOMaYYHHAMcYEiwOOMSZYHHCMMcHigGOMCRYHHGNMsDjgGGOCxQHHGBMsDjjGmGBxwDHGBIsDjjEmWBxwjDHB4oBjjAkWBxxjTLA44BhjgsUBxxgTLA44xphgccAxxgRLRPwcOsaYQHEPjjEmWBxwjDHB4oBjjAkWBxxjTLA44BhjgvX/AV8qSFJ1AmeiAAAAAElFTkSuQmCC;" vertex="1" parent="1">
          <mxGeometry x="575" y="278" width="312" height="240" as="geometry" />
        </mxCell>
        <mxCell id="-WR1szsz5hd7orrfo25A-12" value="" style="rounded=0;whiteSpace=wrap;html=1;strokeColor=none;" vertex="1" parent="1">
          <mxGeometry x="559" y="309" width="30" height="250" as="geometry" />
        </mxCell>
        <mxCell id="-WR1szsz5hd7orrfo25A-13" value="" style="rounded=0;whiteSpace=wrap;html=1;strokeColor=none;" vertex="1" parent="1">
          <mxGeometry x="868" y="318" width="30" height="250" as="geometry" />
        </mxCell>
        <mxCell id="-WR1szsz5hd7orrfo25A-14" value="&lt;font style=&quot;font-size: 14px;&quot;&gt;ReqChan&lt;/font&gt;" style="ellipse;whiteSpace=wrap;html=1;strokeColor=#FF3333;strokeWidth=3;" vertex="1" parent="1">
          <mxGeometry x="499" y="318" width="90" height="40" as="geometry" />
        </mxCell>
        <mxCell id="-WR1szsz5hd7orrfo25A-15" value="&lt;font style=&quot;font-size: 14px;&quot;&gt;InbDatChan&lt;/font&gt;" style="ellipse;whiteSpace=wrap;html=1;strokeColor=#FF3333;strokeWidth=3;" vertex="1" parent="1">
          <mxGeometry x="501" y="388" width="88" height="40" as="geometry" />
        </mxCell>
        <mxCell id="-WR1szsz5hd7orrfo25A-17" value="&lt;font style=&quot;font-size: 14px;&quot;&gt;OutbRspChan&lt;/font&gt;" style="ellipse;whiteSpace=wrap;html=1;strokeColor=#FF3333;strokeWidth=3;" vertex="1" parent="1">
          <mxGeometry x="501" y="457" width="88" height="40" as="geometry" />
        </mxCell>
      </root>
    </mxGraphModel>
  </diagram>
</mxfile>
